# File created by Blade
# Date/Time:  Wed Jan 21 16:27:40 2015
# Frame Rate: 120.000 fps
#------------------------------------------------------
:FULLY-SPECIFIED
:DEGREES
1627
root 18.278339 3.624434 -5.776577 -241.684969 -38.932804 -178.956491
Spine 68.866076 -4.381504 -7.472708
Head 23.786038 -49.266239 -2.904541
LeftShoulder -9.121274 -4.973498 9.315381
LeftArm -46.175955 25.257396 -100.177644
LeftForeArm 23.190234 -0.000000 80.880180
LeftHand -18.847934 -0.000000 5.056120
LeftHandThumb1 -26.253704 0.000000 33.147579
RightShoulder -11.282446 -23.235414 4.252716
RightArm -3.102075 18.926045 56.020294
RightForeArm -11.567882 -0.000000 22.087009
RightHand -1.504891 -0.000000 -2.177896
RightHandThumb1 -24.326973 -0.000000 -32.862282
LeftUpLeg -74.180123 5.413360 -5.109201
LeftLeg 85.845960 -0.000000 -0.000000
LeftFoot 5.272259 36.912468 4.606452
LeftToeBase 6.418334 -0.000000 -0.000000
RightUpLeg -85.408124 -2.722808 -0.283340
RightLeg 126.512131 -0.000000 -0.000000
RightFoot 4.668899 -33.563347 -3.581500
RightToeBase 23.426269 -0.000000 -0.000000
1628
root 18.296669 3.627007 -5.778006 -241.796597 -38.740420 -178.961604
Spine 68.969417 -4.348172 -7.467312
Head 24.634495 -48.630113 -4.121249
LeftShoulder -9.140905 -4.884820 9.339254
LeftArm -46.161493 25.452193 -100.260617
LeftForeArm 22.825141 -0.000000 80.908368
LeftHand -18.871191 -0.000000 5.189497
LeftHandThumb1 -26.253704 0.000000 33.147579
RightShoulder -11.430032 -23.302372 4.612150
RightArm -2.726776 18.404936 55.683994
RightForeArm -10.717266 -0.000000 20.486566
RightHand -1.384912 -0.000000 -1.931470
RightHandThumb1 -24.326973 -0.000000 -32.862282
LeftUpLeg -74.638811 5.391852 -5.950010
LeftLeg 87.113906 -0.000000 -0.000000
LeftFoot 5.453563 36.887858 4.236195
LeftToeBase 5.410439 -0.000000 -0.000000
RightUpLeg -85.199886 -2.084594 -0.200136
RightLeg 126.397996 -0.000000 -0.000000
RightFoot 4.750749 -33.860240 -3.387201
RightToeBase 23.526476 -0.000000 -0.000000
1629
root 18.309263 3.627972 -5.777242 -241.867179 -38.599300 -179.005329
Spine 69.021578 -4.334620 -7.566460
Head 25.510074 -47.873967 -5.328598
LeftShoulder -9.123074 -4.812640 9.371182
LeftArm -46.210980 25.546512 -100.375297
LeftForeArm 22.628505 -0.000000 80.920856
LeftHand -18.878157 -0.000000 5.513535
LeftHandThumb1 -26.253704 0.000000 33.147579
RightShoulder -11.463657 -23.159858 4.916406
RightArm -2.613932 17.889096 55.242084
RightForeArm -9.977509 0.000000 18.958611
RightHand -0.738011 -0.000000 -1.745549
RightHandThumb1 -24.326973 -0.000000 -32.862282
LeftUpLeg -75.074329 5.358474 -6.844497
LeftLeg 88.357968 -0.000000 -0.000000
LeftFoot 5.763262 36.711157 4.732848
LeftToeBase 5.640720 -0.000000 -0.000000
RightUpLeg -85.032051 -1.479249 -0.212237
RightLeg 126.312453 -0.000000 -0.000000
RightFoot 4.840113 -34.017249 -3.288033
RightToeBase 23.742127 -0.000000 -0.000000
1630
root 18.327580 3.627207 -5.775470 -241.922730 -38.422735 -179.090602
Spine 69.084960 -4.279149 -7.676686
Head 26.418314 -47.074409 -6.557762
LeftShoulder -9.089936 -4.722066 9.450507
LeftArm -46.210577 25.595643 -100.482754
LeftForeArm 22.350551 -0.000000 80.922569
LeftHand -18.862153 0.000000 5.608511
LeftHandThumb1 -26.253704 0.000000 33.147579
RightShoulder -11.459673 -23.205469 5.233633
RightArm -2.424719 17.664234 54.863059
RightForeArm -10.041459 -0.000000 17.884227
RightHand -0.339040 -0.000000 -1.533468
RightHandThumb1 -24.326973 -0.000000 -32.862282
LeftUpLeg -75.495450 5.393769 -7.744535
LeftLeg 89.575463 -0.000000 -0.000000
LeftFoot 5.982068 36.593259 4.792619
LeftToeBase 5.176358 -0.000000 -0.000000
RightUpLeg -84.859327 -0.822504 -0.190692
RightLeg 126.206533 -0.000000 -0.000000
RightFoot 4.997314 -34.201201 -3.232137
RightToeBase 23.760271 -0.000000 -0.000000
1631
root 18.336221 3.625773 -5.772871 -242.005806 -38.277164 -179.097452
Spine 69.091214 -4.360479 -7.804296
Head 27.386411 -46.144261 -7.890129
LeftShoulder -9.061759 -4.606322 9.450144
LeftArm -46.243060 25.659037 -100.609047
LeftForeArm 22.055567 -0.000000 80.928774
LeftHand -18.903937 -0.000000 5.771498
LeftHandThumb1 -26.253704 0.000000 33.147579
RightShoulder -11.375392 -23.124586 5.441813
RightArm -2.452799 17.623727 54.411498
RightForeArm -10.650362 -0.000000 17.184666
RightHand -0.518534 0.000000 -1.184787
RightHandThumb1 -24.326973 -0.000000 -32.862282
LeftUpLeg -75.922750 5.314821 -8.640055
LeftLeg 90.797934 -0.000000 -0.000000
LeftFoot 6.127296 36.531829 4.847453
LeftToeBase 4.650657 -0.000000 -0.000000
RightUpLeg -84.725657 -0.273986 -0.226272
RightLeg 126.150357 -0.000000 -0.000000
RightFoot 5.137013 -34.140913 -3.306214
RightToeBase 24.277236 -0.000000 -0.000000
1632
root 18.346425 3.621943 -5.771716 -242.067102 -38.093152 -179.130623
Spine 69.080555 -4.421741 -7.936382
Head 28.344437 -45.157333 -9.203675
LeftShoulder -9.051689 -4.488941 9.501489
LeftArm -46.282742 25.774836 -100.804671
LeftForeArm 21.745101 -0.000000 80.903332
LeftHand -18.931923 -0.000000 5.986056
LeftHandThumb1 -26.253704 0.000000 33.147579
RightShoulder -11.264669 -23.057676 5.599976
RightArm -2.485709 17.563821 53.942819
RightForeArm -10.637162 -0.000000 16.596557
RightHand -0.854606 -0.000000 -0.919856
RightHandThumb1 -24.326973 -0.000000 -32.862282
LeftUpLeg -76.370823 5.263961 -9.488702
LeftLeg 92.027338 -0.000000 -0.000000
LeftFoot 6.247016 36.392565 4.870391
LeftToeBase 4.142544 -0.000000 -0.000000
RightUpLeg -84.614254 0.296684 -0.189831
RightLeg 126.082936 -0.000000 -0.000000
RightFoot 5.195107 -34.323194 -2.950219
RightToeBase 23.855505 -0.000000 -0.000000
1633
root 18.363923 3.621224 -5.771673 -242.162432 -37.863789 -179.140347
Spine 69.105460 -4.444194 -7.993925
Head 29.233656 -44.220545 -10.416019
LeftShoulder -9.008550 -4.414766 9.605082
LeftArm -46.315350 25.919959 -101.043816
LeftForeArm 21.470284 -0.000000 80.855008
LeftHand -19.007757 -0.000000 6.115453
LeftHandThumb1 -26.253704 0.000000 33.147579
RightShoulder -11.221897 -22.955047 5.770415
RightArm -2.486074 17.633960 53.443174
RightForeArm -10.004669 0.000000 15.955087
RightHand -0.891317 0.000000 -0.570489
RightHandThumb1 -24.326973 -0.000000 -32.862282
LeftUpLeg -76.796680 5.240627 -10.325492
LeftLeg 93.207502 -0.000000 -0.000000
LeftFoot 6.321944 36.547483 4.922488
LeftToeBase 4.412098 -0.000000 -0.000000
RightUpLeg -84.455445 0.878810 -0.070261
RightLeg 125.981442 -0.000000 -0.000000
RightFoot 5.252204 -34.526218 -2.754371
RightToeBase 24.020899 -0.000000 -0.000000
1634
root 18.374816 3.618216 -5.768778 -242.231023 -37.606527 -179.165924
Spine 69.092603 -4.497971 -8.069096
Head 30.127671 -43.227534 -11.660165
LeftShoulder -8.971095 -4.388868 9.688848
LeftArm -46.445289 26.035956 -101.351293
LeftForeArm 21.329543 -0.000000 80.794364
LeftHand -19.074373 -0.000000 6.336463
LeftHandThumb1 -26.253704 0.000000 33.147579
RightShoulder -11.137372 -22.870971 5.820822
RightArm -2.410296 17.823664 52.962633
RightForeArm -9.409499 0.000000 15.279361
RightHand -0.939685 0.000000 -0.038918
RightHandThumb1 -24.326973 -0.000000 -32.862282
LeftUpLeg -77.232597 5.163742 -11.012642
LeftLeg 94.461161 -0.000000 -0.000000
LeftFoot 6.455709 36.186930 5.182901
LeftToeBase 4.722959 -0.000000 -0.000000
RightUpLeg -84.328008 1.445903 0.056410
RightLeg 125.886795 -0.000000 -0.000000
RightFoot 5.396548 -34.605560 -2.823455
RightToeBase 24.376500 -0.000000 -0.000000
